# xmcd CD database file
#
# Track frame offsets:
#	150
#	16647
#	30023
#
# Disc length: 583 seconds
#
# Revision: 1
# Processed by: cddbd v1.5.1PL2 Copyright (c) Steve Scherf et al.
# Submitted via: CDex 1.40Release
#
DISCID=0b024503
DTITLE=The Darkness - One Way Ticket
DYEAR=2005
DGENRE=Rock
TTITLE0=One Way Ticket
TTITLE1=Wanker
TTITLE2=Grief Hammer
EXTD=YEAR: 2005 ID3G: 17
EXTT0=
EXTT1=
EXTT2=
PLAYORDER=
